# xmcd
#
# Track frame offsets:
# 150
# 13288
# 27102
# 41016
# 52567
# 62807
# 79344
# 92811
# 106699
# 120734
#
# Disc length: 1797 seconds
#
# Revision: 0
# Processed by: cddbd v1.4PL0 Copyright (c) Steve Scherf et al.
# Submitted via: Axialis_AX_CDPlayer 2.6
#
DISCID=7607030a
DTITLE=Dolly Parton - Here You Come Again
DYEAR=1900
DGENRE=
TTITLE0=Here You Come Again
TTITLE1=Baby Come Out Tonight
TTITLE2=It's All Wrong, But It's All Right
TTITLE3=Me And Little Andy
TTITLE4=Lovin' You
TTITLE5=Cowgirl And The Dandy
TTITLE6=Two Doors Down
TTITLE7=God's Coloring Book
TTITLE8=As Soon As I Touched Him
TTITLE9=Sweet Music Man
EXTD=
EXTT0=
EXTT1=
EXTT2=
EXTT3=
EXTT4=
EXTT5=
EXTT6=
EXTT7=
EXTT8=
EXTT9=
PLAYORDER=
